<mxfile host="65bd71144e">
    <diagram id="LwSql3ClAsCuXNfqQrID" name="Page-1">
        <mxGraphModel dx="546" dy="394" grid="1" gridSize="10" guides="1" tooltips="1" connect="1" arrows="1" fold="1" page="1" pageScale="1" pageWidth="850" pageHeight="1100" math="0" shadow="0">
            <root>
                <mxCell id="0"/>
                <mxCell id="1" parent="0"/>
                <mxCell id="54" value="" style="group;verticalAlign=middle;" vertex="1" connectable="0" parent="1">
                    <mxGeometry x="180" y="120" width="330" height="205" as="geometry"/>
                </mxCell>
                <mxCell id="2" value="&lt;font style=&quot;font-size: 11px&quot;&gt;INPUT: de stappen die moeten worden gedaan: opstaan, lopen, draaien, rechtdoor, links en rechts&lt;/font&gt;" style="rounded=0;whiteSpace=wrap;html=1;" vertex="1" parent="54">
                    <mxGeometry width="330" height="30" as="geometry"/>
                </mxCell>
                <mxCell id="39" value="" style="group;fontSize=11;" vertex="1" connectable="0" parent="54">
                    <mxGeometry y="30" width="330" height="175" as="geometry"/>
                </mxCell>
                <mxCell id="3" value="" style="shape=corner;whiteSpace=wrap;html=1;dx=30;dy=30;" vertex="1" parent="39">
                    <mxGeometry y="30" width="330" height="140" as="geometry"/>
                </mxCell>
                <mxCell id="5" value="&lt;font style=&quot;font-size: 11px&quot;&gt;INPUT: opstaan, lopen naar rechts, rechtdoor, draaien naar links, rechtdoor, draaien naar rechts, rechtdoor, stoppen&lt;/font&gt;" style="rounded=0;whiteSpace=wrap;html=1;" vertex="1" parent="39">
                    <mxGeometry width="330" height="30" as="geometry"/>
                </mxCell>
                <mxCell id="30" value="" style="verticalLabelPosition=bottom;verticalAlign=top;html=1;shape=mxgraph.basic.orthogonal_triangle;strokeColor=#000000;strokeWidth=1;fillColor=none;opacity=80;direction=north;" vertex="1" parent="39">
                    <mxGeometry x="170" y="60" width="160" height="50" as="geometry"/>
                </mxCell>
                <mxCell id="31" value="" style="verticalLabelPosition=bottom;verticalAlign=top;html=1;shape=mxgraph.basic.orthogonal_triangle;strokeColor=#000000;strokeWidth=1;fillColor=none;opacity=80;" vertex="1" parent="39">
                    <mxGeometry x="30" y="60" width="140" height="50" as="geometry"/>
                </mxCell>
                <mxCell id="36" value="" style="verticalLabelPosition=bottom;verticalAlign=top;html=1;shape=mxgraph.basic.rect;fillColor2=none;strokeWidth=1;size=20;indent=5;fillColor=none;opacity=80;" vertex="1" parent="39">
                    <mxGeometry x="30" y="110" width="300" height="30" as="geometry"/>
                </mxCell>
                <mxCell id="38" value="" style="line;strokeWidth=1;direction=south;html=1;fillColor=none;opacity=80;" vertex="1" parent="39">
                    <mxGeometry x="165" y="110" width="10" height="30" as="geometry"/>
                </mxCell>
                <mxCell id="35" value="" style="verticalLabelPosition=bottom;verticalAlign=top;html=1;shape=mxgraph.basic.rect;fillColor2=none;strokeWidth=1;size=20;indent=5;fillColor=none;opacity=80;" vertex="1" parent="39">
                    <mxGeometry x="30" y="140" width="300" height="30" as="geometry"/>
                </mxCell>
                <mxCell id="56" value="VERWERK" style="text;html=1;resizable=0;autosize=1;align=center;verticalAlign=middle;points=[];fillColor=none;strokeColor=none;rounded=0;fontSize=11;opacity=80;" vertex="1" parent="39">
                    <mxGeometry y="30" width="70" height="20" as="geometry"/>
                </mxCell>
                <mxCell id="57" value="als je de tafel aanraakt" style="text;html=1;resizable=0;autosize=1;align=center;verticalAlign=middle;points=[];fillColor=none;strokeColor=none;rounded=0;fontSize=11;opacity=80;" vertex="1" parent="39">
                    <mxGeometry x="105" y="70" width="130" height="20" as="geometry"/>
                </mxCell>
                <mxCell id="58" value="True" style="text;html=1;resizable=0;autosize=1;align=center;verticalAlign=middle;points=[];fillColor=none;strokeColor=none;rounded=0;fontSize=11;opacity=80;" vertex="1" parent="39">
                    <mxGeometry x="40" y="80" width="40" height="20" as="geometry"/>
                </mxCell>
                <mxCell id="59" value="False" style="text;html=1;resizable=0;autosize=1;align=center;verticalAlign=middle;points=[];fillColor=none;strokeColor=none;rounded=0;fontSize=11;opacity=80;" vertex="1" parent="39">
                    <mxGeometry x="270" y="80" width="40" height="20" as="geometry"/>
                </mxCell>
                <mxCell id="60" value="loop naar rechts" style="text;html=1;resizable=0;autosize=1;align=center;verticalAlign=middle;points=[];fillColor=none;strokeColor=none;rounded=0;fontSize=11;opacity=80;" vertex="1" parent="39">
                    <mxGeometry x="50" y="115" width="90" height="20" as="geometry"/>
                </mxCell>
                <mxCell id="61" value="loop rechtdoor" style="text;html=1;resizable=0;autosize=1;align=center;verticalAlign=middle;points=[];fillColor=none;strokeColor=none;rounded=0;fontSize=11;opacity=80;" vertex="1" parent="39">
                    <mxGeometry x="220" y="115" width="90" height="20" as="geometry"/>
                </mxCell>
                <mxCell id="62" value="de deur" style="text;html=1;resizable=0;autosize=1;align=center;verticalAlign=middle;points=[];fillColor=none;strokeColor=none;rounded=0;fontSize=11;opacity=80;" vertex="1" parent="39">
                    <mxGeometry x="140" y="145" width="50" height="20" as="geometry"/>
                </mxCell>
            </root>
        </mxGraphModel>
    </diagram>
</mxfile>